<mxfile host="app.diagrams.net" agent="Mozilla/5.0 (Windows NT 10.0; Win64; x64) AppleWebKit/537.36 (KHTML, like Gecko) Chrome/136.0.0.0 Safari/537.36" version="27.0.9">
  <diagram name="Page-1" id="P7d-GJLEjzGacCMTFN-7">
    <mxGraphModel dx="872" dy="439" grid="1" gridSize="10" guides="1" tooltips="1" connect="1" arrows="1" fold="1" page="1" pageScale="1" pageWidth="850" pageHeight="1100" math="0" shadow="0">
      <root>
        <mxCell id="0" />
        <mxCell id="1" parent="0" />
        <mxCell id="MgcBq8YvQ_dkIzTFEZ2E-1" value="UserManagement" style="shape=folder;fontStyle=1;spacingTop=10;tabWidth=40;tabHeight=14;tabPosition=left;html=1;whiteSpace=wrap;" vertex="1" parent="1">
          <mxGeometry x="367.5" y="70" width="145" height="70" as="geometry" />
        </mxCell>
        <mxCell id="MgcBq8YvQ_dkIzTFEZ2E-2" value="Booking" style="shape=folder;fontStyle=1;spacingTop=-100;tabWidth=40;tabHeight=14;tabPosition=left;html=1;whiteSpace=wrap;align=center;" vertex="1" parent="1">
          <mxGeometry x="270" y="187.5" width="310" height="152.5" as="geometry" />
        </mxCell>
        <mxCell id="MgcBq8YvQ_dkIzTFEZ2E-3" value="Accomodation" style="shape=folder;fontStyle=1;spacingTop=10;tabWidth=40;tabHeight=14;tabPosition=left;html=1;whiteSpace=wrap;" vertex="1" parent="1">
          <mxGeometry x="280" y="230" width="90" height="45" as="geometry" />
        </mxCell>
        <mxCell id="MgcBq8YvQ_dkIzTFEZ2E-4" value="Transport" style="shape=folder;fontStyle=1;spacingTop=10;tabWidth=40;tabHeight=14;tabPosition=left;html=1;whiteSpace=wrap;" vertex="1" parent="1">
          <mxGeometry x="400" y="270" width="80" height="40" as="geometry" />
        </mxCell>
        <mxCell id="MgcBq8YvQ_dkIzTFEZ2E-5" value="Activity" style="shape=folder;fontStyle=1;spacingTop=10;tabWidth=40;tabHeight=14;tabPosition=left;html=1;whiteSpace=wrap;" vertex="1" parent="1">
          <mxGeometry x="490" y="245" width="80" height="45" as="geometry" />
        </mxCell>
        <mxCell id="MgcBq8YvQ_dkIzTFEZ2E-6" value="PaymentSystem" style="shape=folder;fontStyle=1;spacingTop=10;tabWidth=40;tabHeight=14;tabPosition=left;html=1;whiteSpace=wrap;" vertex="1" parent="1">
          <mxGeometry x="70" y="245" width="130" height="50" as="geometry" />
        </mxCell>
        <mxCell id="MgcBq8YvQ_dkIzTFEZ2E-7" value="ReviewAndRating" style="shape=folder;fontStyle=1;spacingTop=10;tabWidth=40;tabHeight=14;tabPosition=left;html=1;whiteSpace=wrap;" vertex="1" parent="1">
          <mxGeometry x="700" y="250" width="120" height="50" as="geometry" />
        </mxCell>
        <mxCell id="MgcBq8YvQ_dkIzTFEZ2E-8" value="AlertSystem" style="shape=folder;fontStyle=1;spacingTop=10;tabWidth=40;tabHeight=14;tabPosition=left;html=1;whiteSpace=wrap;" vertex="1" parent="1">
          <mxGeometry x="630" y="90" width="120" height="50" as="geometry" />
        </mxCell>
        <mxCell id="MgcBq8YvQ_dkIzTFEZ2E-9" value="MultilingualSupport" style="shape=folder;fontStyle=1;spacingTop=10;tabWidth=40;tabHeight=14;tabPosition=left;html=1;whiteSpace=wrap;" vertex="1" parent="1">
          <mxGeometry x="140" y="90" width="130" height="60" as="geometry" />
        </mxCell>
        <mxCell id="MgcBq8YvQ_dkIzTFEZ2E-10" value="" style="endArrow=open;endSize=12;dashed=1;html=1;rounded=0;exitX=0.468;exitY=0.089;exitDx=0;exitDy=0;exitPerimeter=0;entryX=0.5;entryY=1;entryDx=0;entryDy=0;entryPerimeter=0;" edge="1" parent="1" source="MgcBq8YvQ_dkIzTFEZ2E-2" target="MgcBq8YvQ_dkIzTFEZ2E-1">
          <mxGeometry width="160" relative="1" as="geometry">
            <mxPoint x="350" y="230" as="sourcePoint" />
            <mxPoint x="510" y="230" as="targetPoint" />
          </mxGeometry>
        </mxCell>
        <mxCell id="MgcBq8YvQ_dkIzTFEZ2E-12" value="" style="endArrow=open;endSize=12;dashed=1;html=1;rounded=0;exitX=0;exitY=0;exitDx=130;exitDy=32;exitPerimeter=0;entryX=0;entryY=0;entryDx=0;entryDy=83.25;entryPerimeter=0;" edge="1" parent="1" source="MgcBq8YvQ_dkIzTFEZ2E-6" target="MgcBq8YvQ_dkIzTFEZ2E-2">
          <mxGeometry width="160" relative="1" as="geometry">
            <mxPoint x="350" y="230" as="sourcePoint" />
            <mxPoint x="510" y="230" as="targetPoint" />
          </mxGeometry>
        </mxCell>
        <mxCell id="MgcBq8YvQ_dkIzTFEZ2E-13" value="" style="endArrow=open;endSize=12;dashed=1;html=1;rounded=0;exitX=0;exitY=0;exitDx=0;exitDy=32;exitPerimeter=0;entryX=0;entryY=0;entryDx=310;entryDy=83.25;entryPerimeter=0;" edge="1" parent="1" source="MgcBq8YvQ_dkIzTFEZ2E-7" target="MgcBq8YvQ_dkIzTFEZ2E-2">
          <mxGeometry width="160" relative="1" as="geometry">
            <mxPoint x="350" y="230" as="sourcePoint" />
            <mxPoint x="510" y="230" as="targetPoint" />
          </mxGeometry>
        </mxCell>
        <mxCell id="MgcBq8YvQ_dkIzTFEZ2E-14" value="" style="endArrow=open;endSize=12;dashed=1;html=1;rounded=0;exitX=0;exitY=0;exitDx=130;exitDy=37;exitPerimeter=0;entryX=0;entryY=0;entryDx=0;entryDy=42;entryPerimeter=0;" edge="1" parent="1" source="MgcBq8YvQ_dkIzTFEZ2E-9" target="MgcBq8YvQ_dkIzTFEZ2E-1">
          <mxGeometry width="160" relative="1" as="geometry">
            <mxPoint x="350" y="230" as="sourcePoint" />
            <mxPoint x="510" y="230" as="targetPoint" />
          </mxGeometry>
        </mxCell>
        <mxCell id="MgcBq8YvQ_dkIzTFEZ2E-16" value="" style="endArrow=open;endSize=12;dashed=1;html=1;rounded=0;exitX=0;exitY=0;exitDx=0;exitDy=32;exitPerimeter=0;entryX=0;entryY=0;entryDx=145;entryDy=42;entryPerimeter=0;" edge="1" parent="1" source="MgcBq8YvQ_dkIzTFEZ2E-8" target="MgcBq8YvQ_dkIzTFEZ2E-1">
          <mxGeometry width="160" relative="1" as="geometry">
            <mxPoint x="350" y="230" as="sourcePoint" />
            <mxPoint x="510" y="230" as="targetPoint" />
          </mxGeometry>
        </mxCell>
      </root>
    </mxGraphModel>
  </diagram>
</mxfile>
